<?xml version="1.0" standalone="no"?>
<!DOCTYPE svg PUBLIC "-//W3C//DTD SVG 20010904//EN"
 "http://www.w3.org/TR/2001/REC-SVG-20010904/DTD/svg10.dtd">
<svg version="1.0" xmlns="http://www.w3.org/2000/svg"
 width="416.000000pt" height="439.000000pt" viewBox="0 0 416.000000 439.000000"
 preserveAspectRatio="xMidYMid meet">

<g transform="translate(0.000000,439.000000) scale(0.100000,-0.100000)"
fill="#000000" stroke="none">
<path d="M2031 4373 c-33 -27 -44 -134 -37 -348 6 -192 21 -332 38 -352 16
-19 63 -16 89 6 l24 19 0 327 0 327 -24 19 c-29 24 -62 24 -90 2z"/>
<path d="M616 3779 c-37 -29 -34 -66 11 -120 87 -103 171 -191 286 -296 99
-92 128 -113 152 -113 45 0 75 25 75 63 0 28 -26 58 -228 259 -149 149 -235
228 -249 228 -11 0 -32 -9 -47 -21z"/>
<path d="M3248 3572 c-186 -185 -228 -233 -228 -255 0 -37 32 -67 74 -67 28 0
47 13 126 87 135 127 350 372 350 398 0 28 -40 65 -70 65 -19 0 -81 -57 -252
-228z"/>
<path d="M1906 3304 c-207 -41 -370 -127 -517 -273 -249 -250 -345 -602 -254
-939 25 -93 40 -127 173 -387 118 -231 172 -434 172 -649 0 -136 17 -202 66
-256 19 -21 54 -48 78 -59 41 -20 59 -21 460 -21 394 0 419 1 455 20 47 24 99
74 113 109 5 14 11 107 12 206 2 148 6 194 24 258 34 125 99 277 189 444 47
86 95 184 109 217 234 589 -132 1236 -756 1335 -88 14 -240 12 -324 -5z m389
-149 c364 -100 625 -437 625 -807 0 -170 -16 -224 -150 -493 -174 -348 -224
-518 -236 -790 -7 -146 -15 -174 -55 -196 -29 -15 -769 -15 -798 1 -46 24 -54
54 -62 224 -13 265 -59 417 -234 771 -128 260 -145 315 -145 477 0 397 284
740 680 824 84 17 292 11 375 -11z"/>
<path d="M1865 3042 c-109 -37 -184 -83 -277 -171 -142 -134 -223 -292 -235
-457 -7 -104 -1 -128 37 -144 39 -16 77 -1 84 32 3 13 12 57 20 98 55 285 246
475 520 515 54 8 104 20 112 26 21 18 18 85 -6 109 -31 31 -151 28 -255 -8z"/>
<path d="M25 2355 c-31 -30 -33 -77 -5 -105 19 -19 33 -20 340 -20 307 0 321
1 340 20 30 30 27 83 -6 109 -26 20 -38 21 -336 21 l-309 0 -24 -25z"/>
<path d="M3465 2355 c-28 -27 -33 -71 -11 -101 14 -18 31 -19 340 -22 316 -3
326 -2 346 18 28 28 26 75 -5 105 l-24 25 -311 0 -311 0 -24 -25z"/>
<path d="M824 1149 c-117 -117 -218 -225 -225 -241 -22 -53 27 -109 83 -95 34
9 445 425 454 460 9 40 -22 81 -66 85 -30 3 -46 -10 -246 -209z"/>
<path d="M3031 1334 c-12 -15 -21 -33 -21 -40 0 -18 240 -273 369 -392 106
-98 132 -109 166 -72 49 54 19 97 -254 362 -153 147 -178 168 -207 168 -23 0
-38 -8 -53 -26z"/>
<path d="M1621 687 c-19 -7 -39 -19 -44 -28 -10 -16 -5 -53 10 -75 6 -9 142
-13 481 -15 l474 -4 19 24 c29 36 21 72 -21 93 -32 16 -75 18 -460 17 -302 0
-435 -4 -459 -12z"/>
<path d="M2125 519 c-181 -3 -381 -7 -442 -8 l-113 -1 0 -44 0 -44 163 -7 c89
-4 312 -5 495 -3 358 3 351 2 352 56 0 37 -34 62 -82 60 -24 -1 -191 -5 -373
-9z"/>
<path d="M1939 363 l-346 -3 -11 -26 c-19 -39 -14 -62 15 -81 25 -17 63 -18
478 -18 415 0 453 1 478 18 33 21 35 54 6 91 -20 26 -21 26 -147 24 -70 -2
-283 -4 -473 -5z"/>
<path d="M1711 180 c-29 -20 -13 -125 24 -158 26 -22 29 -22 339 -22 299 0
314 1 339 20 29 23 56 123 41 148 -7 11 -79 14 -372 15 -200 1 -367 0 -371 -3z"/>
</g>
</svg>
